/* XPM */
static char *result[] = {
/* columns rows colors chars-per-pixel */
"16 16 78 1 ",
"  c gray8",
". c #151515",
"X c #181818",
"o c gray10",
"O c #1B1B1B",
"+ c gray11",
"@ c #1D1D1D",
"# c #1E1E1E",
"$ c gray12",
"% c #202020",
"& c #222222",
"* c #232323",
"= c gray14",
"- c #252525",
"; c gray15",
": c #272727",
"> c #282828",
", c gray16",
"< c #2A2A2A",
"1 c gray17",
"2 c #2C2C2C",
"3 c gray18",
"4 c gray19",
"5 c #313131",
"6 c #323232",
"7 c gray20",
"8 c #343434",
"9 c gray21",
"0 c #393939",
"q c #3F3F3F",
"w c gray26",
"e c #434343",
"r c gray28",
"t c #494949",
"y c gray29",
"u c gray30",
"i c gray31",
"p c gray32",
"a c #535353",
"s c #565656",
"d c gray34",
"f c gray35",
"g c #5B5B5B",
"h c gray37",
"j c gray40",
"k c #686868",
"l c #6A6A6A",
"z c #898989",
"x c #909090",
"c c #AAAAAA",
"v c gray68",
"b c #B7B7B7",
"n c #BBBBBB",
"m c gray",
"M c #C0C0C0",
"N c #C3C3C3",
"B c #C6C6C6",
"V c #C8C8C8",
"C c gray79",
"Z c #CACACA",
"A c gray80",
"S c #D0D0D0",
"D c gray83",
"F c #D7D7D7",
"G c #D8D8D8",
"H c gray86",
"J c gray87",
"K c #DFDFDF",
"L c #E6E6E6",
"P c #E7E7E7",
"I c #E9E9E9",
"U c #EEEEEE",
"Y c #EFEFEF",
"T c gray95",
"R c #F6F6F6",
"E c #FEFEFE",
"W c white",
"Q c None",
/* pixels */
"QQQQQQrpirQQQQQQ",
"QQQQ@-;@>0+OQQQQ",
"QQ.22-%gAUx8,QQQ",
"QQ2<$evWWWWN:1QQ",
"Q@1>zTWWERWH,1+Q",
"Q->4YWWVpCWF,<=Q",
"q:,4LWB&oZWF,<-a",
"y;,4LWb 3GWF,<-f",
"y;,4LWnlHWWF,<-g",
"w:,5LWMcWWWF,<-s",
"Q:>5LWbXhIWF,<=Q",
"Q=,5PWm%@VWJ>1+Q",
"QQ,6USd--DKk:1QQ",
"QQ 7l2*11j9&2QQQ",
"QQQQ.=;;;$*#QQQQ",
"QQQQQQtaauQQQQQQ"
};
