/* XPM */
static char *result[] = {
/* columns rows colors chars-per-pixel */
"64 64 146 2 ",
"   c gray3",
".  c gray7",
"X  c #131313",
"o  c gray8",
"O  c #151515",
"+  c #161616",
"@  c gray9",
"#  c #181818",
"$  c #191919",
"%  c gray10",
"&  c gray11",
"*  c #1D1D1D",
"=  c #1E1E1E",
"-  c gray12",
";  c #202020",
":  c gray13",
">  c #222222",
",  c #232323",
"<  c gray14",
"1  c #252525",
"2  c gray15",
"3  c #272727",
"4  c #282828",
"5  c gray16",
"6  c #2A2A2A",
"7  c gray17",
"8  c #2C2C2C",
"9  c #2D2D2D",
"0  c gray18",
"q  c #2F2F2F",
"w  c gray19",
"e  c #313131",
"r  c #323232",
"t  c gray20",
"y  c #343434",
"u  c #353535",
"i  c gray21",
"p  c #373737",
"a  c gray22",
"s  c #393939",
"d  c #3A3A3A",
"f  c gray23",
"g  c gray24",
"h  c #3E3E3E",
"j  c gray25",
"k  c #414141",
"l  c gray26",
"z  c #434343",
"x  c #444444",
"c  c gray27",
"v  c #464646",
"b  c #484848",
"n  c #494949",
"m  c gray29",
"M  c #4B4B4B",
"N  c gray30",
"B  c #4E4E4E",
"V  c gray31",
"C  c #505050",
"Z  c gray33",
"A  c #555555",
"S  c gray34",
"D  c #5B5B5B",
"F  c gray36",
"G  c #5D5D5D",
"H  c gray37",
"J  c #606060",
"K  c gray38",
"L  c #646464",
"P  c #656565",
"I  c #686868",
"U  c DimGray",
"Y  c #6A6A6A",
"T  c gray43",
"R  c gray44",
"E  c #727272",
"W  c gray47",
"Q  c gray48",
"!  c #7C7C7C",
"~  c gray50",
"^  c #818181",
"/  c gray51",
"(  c gray53",
")  c #888888",
"_  c gray56",
"`  c gray57",
"'  c #959595",
"]  c #9A9A9A",
"[  c gray61",
"{  c gray62",
"}  c #9F9F9F",
"|  c #A0A0A0",
" . c gray63",
".. c #A5A5A5",
"X. c gray65",
"o. c gray66",
"O. c #A9A9A9",
"+. c #AAAAAA",
"@. c gray67",
"#. c #ACACAC",
"$. c gray68",
"%. c #AEAEAE",
"&. c #AFAFAF",
"*. c gray69",
"=. c #B1B1B1",
"-. c gray72",
";. c #B9B9B9",
":. c #BCBCBC",
">. c gray74",
",. c gray",
"<. c gray75",
"1. c gray77",
"2. c #C6C6C6",
"3. c #C8C8C8",
"4. c #CBCBCB",
"5. c #CDCDCD",
"6. c gray82",
"7. c gray83",
"8. c #D7D7D7",
"9. c #D8D8D8",
"0. c gray85",
"q. c #DADADA",
"w. c gray87",
"e. c #DFDFDF",
"r. c gray89",
"t. c gray90",
"y. c gray91",
"u. c #EAEAEA",
"i. c #ECECEC",
"p. c gray93",
"a. c #EEEEEE",
"s. c #EFEFEF",
"d. c gray94",
"f. c #F1F1F1",
"g. c gray95",
"h. c #F3F3F3",
"j. c #F4F4F4",
"k. c gray96",
"l. c gray97",
"z. c #F9F9F9",
"x. c gray98",
"c. c #FBFBFB",
"v. c #FDFDFD",
"b. c #FEFEFE",
"n. c white",
"m. c None",
/* pixels */
"m.m.m.m.m.m.m.m.m.m.m.m.m.m.m.m.m.m.m.m.m.m.m.m.m.m.m.m.m.m.m.m.m.m.m.m.m.m.m.m.m.m.m.m.m.m.m.m.m.m.m.m.m.m.m.m.m.m.m.m.m.m.m.m.",
"m.m.m.m.m.m.m.m.m.m.m.m.m.m.m.m.m.m.m.m.m.m.m.m.m.m.5 0 r u i p p i y e 9 2 m.m.m.m.m.m.m.m.m.m.m.m.m.m.m.m.m.m.m.m.m.m.m.m.m.m.",
"m.m.m.m.m.m.m.m.m.m.m.m.m.m.m.m.m.m.m.m.m.m.# - 2 4 4 3 3 2 2 2 2 2 3 3 4 4 4 1 = . m.m.m.m.m.m.m.m.m.m.m.m.m.m.m.m.m.m.m.m.m.m.",
"m.m.m.m.m.m.m.m.m.m.m.m.m.m.m.m.m.m.m.m.O - 7 6 5 5 5 5 5 5 5 5 5 5 5 5 5 5 5 6 7 8 6 ; m.m.m.m.m.m.m.m.m.m.m.m.m.m.m.m.m.m.m.m.",
"m.m.m.m.m.m.m.m.m.m.m.m.m.m.m.m.m.@ 3 8 6 5 5 5 5 5 5 5 5 5 5 5 5 5 5 5 5 5 5 5 5 5 5 7 8 < m.m.m.m.m.m.m.m.m.m.m.m.m.m.m.m.m.m.",
"m.m.m.m.m.m.m.m.m.m.m.m.m.m.m.m.2 8 6 5 5 5 5 5 5 5 5 5 5 5 5 5 5 5 5 5 5 5 5 5 5 5 5 5 5 7 8 : m.m.m.m.m.m.m.m.m.m.m.m.m.m.m.m.",
"m.m.m.m.m.m.m.m.m.m.m.m.m.m.- 8 6 5 5 5 5 5 5 5 5 5 5 5 5 5 5 5 5 5 6 1 = - 2 5 5 5 5 5 5 5 5 7 6 @ m.m.m.m.m.m.m.m.m.m.m.m.m.m.",
"m.m.m.m.m.m.m.m.m.m.m.m.m.3 8 5 5 5 5 5 5 5 5 5 5 5 5 5 5 5 5 5 5 3 & i ` ( 0 * 4 5 5 5 5 5 5 5 6 8 : m.m.m.m.m.m.m.m.m.m.m.m.m.",
"m.m.m.m.m.m.m.m.m.m.m.m.6 6 5 5 5 5 5 5 5 5 5 5 5 5 5 5 5 5 5 5 - 2 W t.b.n.q.Y : ; 5 5 5 5 5 5 5 5 7 2 m.m.m.m.m.m.m.m.m.m.m.m.",
"m.m.m.m.m.m.m.m.m.m.+ 8 6 5 5 5 5 5 5 5 5 5 5 5 5 5 5 5 5 5 , = D 4.n.n.s.j.n.n.<.V & < 6 5 5 5 5 5 5 7 5 m.m.m.m.m.m.m.m.m.m.m.",
"m.m.m.m.m.m.m.m.m.@ 8 5 5 5 5 5 5 5 5 5 5 5 5 5 5 5 5 6 2 & l %.n.n.n.n.d.j.n.n.n.c. .s & 3 5 5 5 5 5 5 6 5 m.m.m.m.m.m.m.m.m.m.",
"m.m.m.m.m.m.m.m.m.8 5 5 5 5 5 5 5 5 5 5 5 5 5 5 5 5 4 * q _ g.n.n.n.n.n.d.j.n.n.n.n.n.u./ 6 = 5 5 5 5 5 5 6 5 m.m.m.m.m.m.m.m.m.",
"m.m.m.m.m.m.m.m.7 6 5 5 5 5 5 5 5 5 5 5 5 5 5 5 5 ; , R w.n.n.n.n.n.n.n.d.j.n.n.n.n.n.n.n.7.P 4 5 5 5 5 5 5 7 2 m.m.m.m.m.m.m.m.",
"m.m.m.m.m.m.m.4 6 5 5 5 5 5 5 5 5 5 5 5 5 5 5 , * Z 1.n.n.n.n.n.n.n.n.n.d.j.n.n.n.n.n.n.n.n.n.S : 5 5 5 5 5 5 8 ; m.m.m.m.m.m.m.",
"m.m.m.m.m.m.; 8 5 5 5 5 5 5 5 5 5 5 5 5 5 2 & g X.v.n.n.n.n.n.n.n.n.n.n.d.j.n.n.n.n.n.n.n.n.n.J ; 5 5 5 5 5 5 5 8 m.m.m.m.m.m.m.",
"m.m.m.m.m.m.8 5 5 5 5 5 5 5 5 5 5 5 5 4 * 8 ( p.n.n.n.n.n.n.n.n.n.n.n.n.d.j.n.n.n.n.n.n.n.n.n.H ; 5 5 5 5 5 5 5 6 5 m.m.m.m.m.m.",
"m.m.m.m.m.4 6 5 5 5 5 5 5 5 5 5 5 5 : : U 9.n.n.n.n.n.n.n.n.n.n.n.n.n.n.d.j.n.n.n.n.n.n.n.n.n.H ; 5 5 5 5 5 5 5 5 7 - m.m.m.m.m.",
"m.m.m.m.$ 8 5 5 5 5 5 5 5 5 5 6 1 & B >.n.n.n.n.n.n.n.n.n.n.n.n.n.n.n.n.s.h.n.n.n.n.n.n.n.n.n.H ; 5 5 5 5 5 5 5 5 5 7 m.m.m.m.m.",
"m.m.m.m.5 6 5 5 5 5 5 5 5 5 5 2 s } x.n.n.n.n.n.n.n.n.n.n.n.n.n.n.n.n.n.k.g.n.n.n.n.n.n.n.n.n.H ; 5 5 5 5 5 5 5 5 5 7 : m.m.m.m.",
"m.m.m.  8 5 5 5 5 5 5 5 5 5 5 * ..n.n.n.n.n.n.n.n.n.n.n.n.n.n.n.n.n.n.6.E i.n.n.n.n.n.n.n.n.n.H ; 5 5 5 5 5 5 5 5 5 5 7 m.m.m.m.",
"m.m.m.+ 6 5 5 5 5 5 5 5 5 5 5 * O.n.n.n.n.n.n.n.n.n.n.n.n.n.n.n.n.u.^ 1 0 d.n.n.n.n.n.n.n.n.n.H ; 5 5 5 5 5 5 5 5 5 5 7 * m.m.m.",
"m.m.m.- 5 5 5 5 5 5 5 5 5 5 5 * o.n.n.n.n.n.n.n.n.n.n.n.n.n.n.x.| s & , d d.n.n.n.n.n.n.n.n.n.H ; 5 5 5 5 5 5 5 5 5 5 6 4 m.m.m.",
"m.m.= 7 5 5 5 5 5 5 5 5 5 5 5 * o.n.n.n.n.n.n.n.n.n.n.n.n.n.,.V & < 6 1 s d.n.n.n.n.n.n.n.n.n.H ; 5 5 5 5 5 5 5 5 5 5 5 8 m.m.m.",
"m.m.1 6 5 5 5 5 5 5 5 5 5 5 5 * o.n.n.n.n.n.n.n.n.n.n.n.0.Y : : 5 5 5 1 s d.n.n.n.n.n.n.n.n.n.H ; 5 5 5 5 5 5 5 5 5 5 5 7 @ m.m.",
"m.m.6 5 5 5 5 5 5 5 5 5 5 5 5 * o.n.n.n.n.n.n.n.n.n.s.) 8 * 4 5 5 5 5 1 s d.n.n.n.n.n.n.n.n.n.H ; 5 5 5 5 5 5 5 5 5 5 5 6 ; m.m.",
"m.+ 6 5 5 5 5 5 5 5 5 5 5 5 5 * o.n.n.n.n.n.n.n.n.n.&.o 2 5 5 5 5 5 5 1 a d.n.n.n.n.n.n.n.n.n.H ; 5 5 5 5 5 5 5 5 5 5 5 5 < m.m.",
"m.* 6 5 5 5 5 5 5 5 5 5 5 5 5 * o.n.n.n.n.n.n.n.n.n.&.= 5 5 5 5 5 5 5 1 a d.n.n.n.n.n.n.n.n.n.H ; 5 5 5 5 5 5 5 5 5 5 5 5 1 m.m.",
"m., 5 5 5 5 5 5 5 5 5 5 5 5 5 * o.n.n.n.n.n.n.n.n.n.*.= 5 5 5 5 5 5 5 1 a d.n.n.n.n.n.n.n.n.n.H ; 5 5 5 5 5 5 5 5 5 5 5 5 1 f m.",
"m.2 5 5 5 5 5 5 5 5 5 5 5 5 5 * o.n.n.n.n.n.n.n.n.n.&.* 5 5 5 5 5 5 5 1 a d.n.n.n.n.n.n.n.n.n.H ; 5 5 5 5 5 5 5 5 5 5 5 5 1 j m.",
"m.4 4 5 5 5 5 5 5 5 5 5 5 5 5 * o.n.n.n.n.n.n.n.n.n.&.* 5 5 5 5 5 5 5 1 i s.n.n.n.n.n.n.n.n.n.H ; 5 5 5 5 5 5 5 5 5 5 5 5 < z m.",
"m.5 4 5 5 5 5 5 5 5 5 5 5 5 5 * o.n.n.n.n.n.n.n.n.n.&.* 5 5 5 5 5 5 4 % f g.n.n.n.n.n.n.n.n.n.H ; 5 5 5 5 5 5 5 5 5 5 5 5 < c m.",
"m.5 4 5 5 5 5 5 5 5 5 5 5 5 5 * o.n.n.n.n.n.n.n.n.n.&.* 5 5 5 5 5 : : I 8.n.n.n.n.n.n.n.n.n.n.H ; 5 5 5 5 5 5 5 5 5 5 5 5 < v m.",
"m.5 4 5 5 5 5 5 5 5 5 5 5 5 5 * o.n.n.n.n.n.n.n.n.n.&.* 5 5 6 < & N :.n.n.n.n.n.n.n.n.n.n.n.n.H ; 5 5 5 5 5 5 5 5 5 5 5 5 < b m.",
"m.5 4 5 5 5 5 5 5 5 5 5 5 5 5 * o.n.n.n.n.n.n.n.n.n.&.* 5 3 & p { z.n.n.n.n.n.n.n.n.n.n.n.n.n.H ; 5 5 5 5 5 5 5 5 5 5 5 5 , M m.",
"m.4 4 5 5 5 5 5 5 5 5 5 5 5 5 * o.n.n.n.n.n.n.n.n.n.%.* = 4 ~ y.n.n.n.n.n.n.n.n.n.n.n.n.n.n.n.H ; 5 5 5 5 5 5 5 5 5 5 5 5 , n m.",
"m.2 5 5 5 5 5 5 5 5 5 5 5 5 5 * O.n.n.n.n.n.n.n.n.n.#.@ K 6.n.n.n.n.n.n.n.n.n.n.n.n.n.n.n.n.n.H ; 5 5 5 5 5 5 5 5 5 5 5 5 < c m.",
"m., 5 5 5 5 5 5 5 5 5 5 5 5 5 * O.n.n.n.n.n.n.n.n.n.#.[ n.n.n.n.n.n.n.n.n.n.n.n.n.n.n.n.n.n.n.H ; 5 5 5 5 5 5 5 5 5 5 5 5 < j m.",
"m.* 6 5 5 5 5 5 5 5 5 5 5 5 5 * O.n.n.n.n.n.n.n.n.n.@.k =.n.n.n.n.n.n.n.n.n.n.n.n.n.n.n.n.n.n.H ; 5 5 5 5 5 5 5 5 5 5 5 5 < m.m.",
"m.+ 6 5 5 5 5 5 5 5 5 5 5 5 5 * O.n.n.n.n.n.n.n.n.n.%.+ = F 5.n.n.n.n.n.n.n.n.n.n.n.n.n.n.n.n.H ; 5 5 5 5 5 5 5 5 5 5 5 5 , m.m.",
"m.m.6 5 5 5 5 5 5 5 5 5 5 5 5 * O.n.n.n.n.n.n.n.n.n.%.* 5 - 2 Q t.n.n.n.n.n.n.n.n.n.n.n.n.n.n.H ; 5 5 5 5 5 5 5 5 5 5 5 6 - m.m.",
"m.m.2 6 5 5 5 5 5 5 5 5 5 5 5 * O.n.n.n.n.n.n.n.n.n.$.* 5 5 3 & u ] l.n.n.n.n.n.n.n.n.n.n.n.n.H ; 5 5 5 5 5 5 5 5 5 5 5 7 + m.m.",
"m.m.* 7 5 5 5 5 5 5 5 5 5 5 5 * O.n.n.n.n.n.n.n.n.n.@.* 5 5 5 6 1 & m ;.n.n.n.n.n.n.n.n.n.n.n.G ; 5 5 5 5 5 5 5 5 5 5 5 8 m.m.m.",
"m.m.m.6 5 5 5 5 5 5 5 5 5 5 5 * O.n.n.n.n.n.n.n.n.n.#.* 5 5 5 5 5 5 : - T l.n.n.n.n.n.n.n.n.n.G ; 5 5 5 5 5 5 5 5 5 5 6 4 m.m.m.",
"m.m.m.w 4 5 5 5 5 5 5 5 5 5 5 * O.n.n.n.n.n.n.n.n.n.#.* 5 5 5 5 5 5 5 1 q p.n.n.n.n.n.n.n.n.n.G ; 5 5 5 5 5 5 5 5 5 5 8 * m.m.m.",
"m.m.m.d 1 5 5 5 5 5 5 5 5 5 5 * O.n.n.n.n.n.n.n.n.n.#.* 5 5 5 5 5 5 5 2 p a.n.n.n.n.n.n.n.n.n.G ; 5 5 5 5 5 5 5 5 5 5 7 m.m.m.m.",
"m.m.m.m.> 6 5 5 5 5 5 5 5 5 5 * O.n.n.n.n.n.n.n.n.n.#.* 5 5 5 5 5 5 5 2 p a.n.n.n.n.n.n.n.n.n.G ; 5 5 5 5 5 5 5 5 5 7 : m.m.m.m.",
"m.m.m.m.. 8 5 5 5 5 5 5 5 5 5 * O.n.n.n.n.n.n.n.n.n.@.* 5 5 5 5 5 5 5 2 p a.n.n.n.n.n.n.n.n.n.G ; 5 5 5 5 5 5 5 5 5 7 m.m.m.m.m.",
"m.m.m.m.m.4 6 5 5 5 5 5 5 5 5 * O.n.n.n.n.n.n.n.n.n.=.* 5 5 5 5 5 5 5 2 i p.n.n.n.n.n.n.n.n.n.K ; 5 5 5 5 5 5 5 5 7 - m.m.m.m.m.",
"m.m.m.m.m.m.8 5 5 5 5 5 5 5 5 * O.n.n.n.n.n.n.n.n.l.! ; 5 5 5 5 5 5 5 2 i p.n.n.n.n.n.n.n.n.0.z < 5 5 5 5 5 5 5 6 5 m.m.m.m.m.m.",
"m.m.m.m.m.m.; 7 5 5 5 5 5 5 5 * O.n.n.n.n.n.n.n.-.n ; 5 5 5 5 5 5 5 5 2 i p.n.n.n.n.n.n.a.) 8 < 6 5 5 5 5 5 5 5 8 m.m.m.m.m.m.m.",
"m.m.m.m.m.m.m.4 6 5 5 5 5 5 5 * O.n.n.n.n.n.7.L ; : 5 5 5 5 5 5 5 5 5 2 i p.n.n.n.n.v.o.h & 2 5 5 5 5 5 5 5 5 8 ; m.m.m.m.m.m.m.",
"m.m.m.m.m.m.m.m.7 6 5 5 5 5 5 * o.n.n.n.u./ 5 = 5 5 5 5 5 5 5 5 5 5 5 2 i p.n.n.n.2.A * , 5 5 5 5 5 5 5 5 5 7 2 m.m.m.m.m.m.m.m.",
"m.m.m.m.m.m.m.m.m.8 5 5 5 5 5 * +.n.c. .s & 3 5 5 5 5 5 5 5 5 5 5 5 5 2 i f.n.e.E < ; 5 5 5 5 5 5 5 5 5 5 6 5 m.m.m.m.m.m.m.m.m.",
"m.m.m.m.m.m.m.m.m.@ 8 5 5 5 5 = %.3.C & < 6 5 5 5 5 5 5 5 5 5 5 5 5 5 2 d r.' w * 4 5 5 5 5 5 5 5 5 5 5 6 6 m.m.m.m.m.m.m.m.m.m.",
"m.m.m.m.m.m.m.m.m.m.@ 8 6 5 5 4 x 5 ; 5 5 5 5 5 5 5 5 5 5 5 5 5 5 5 5 4 w j = 2 5 5 5 5 5 5 5 5 5 5 5 7 5 m.m.m.m.m.m.m.m.m.m.m.",
"m.m.m.m.m.m.m.m.m.m.m.m.7 6 5 5 < 3 5 5 5 5 5 5 5 5 5 5 5 5 5 5 5 5 5 5 4 < 5 5 5 5 5 5 5 5 5 5 5 5 7 2 m.m.m.m.m.m.m.m.m.m.m.m.",
"m.m.m.m.m.m.m.m.m.m.m.m.m.3 8 5 5 5 5 5 5 5 5 5 5 5 5 5 5 5 5 5 5 5 5 5 5 5 5 5 5 5 5 5 5 5 5 5 6 8 : m.m.m.m.m.m.m.m.m.m.m.m.m.",
"m.m.m.m.m.m.m.m.m.m.m.m.m.m.- 8 6 5 5 5 5 5 5 5 5 5 5 5 5 5 5 5 5 5 5 5 5 5 5 5 5 5 5 5 5 5 5 7 6 @ m.m.m.m.m.m.m.m.m.m.m.m.m.m.",
"m.m.m.m.m.m.m.m.m.m.m.m.m.m.m.m.2 8 6 5 5 5 5 5 5 5 5 5 5 5 5 5 5 5 5 5 5 5 5 5 5 5 5 5 5 6 8 : m.m.m.m.m.m.m.m.m.m.m.m.m.m.m.m.",
"m.m.m.m.m.m.m.m.m.m.m.m.m.m.m.m.m.@ 3 8 6 5 5 5 5 5 5 5 5 5 5 5 5 5 5 5 5 5 5 5 5 5 5 7 8 < m.m.m.m.m.m.m.m.m.m.m.m.m.m.m.m.m.m.",
"m.m.m.m.m.m.m.m.m.m.m.m.m.m.m.m.m.m.m.m.O - 7 6 5 5 5 5 5 5 5 5 5 5 5 5 5 5 5 6 7 8 6 : m.m.m.m.m.m.m.m.m.m.m.m.m.m.m.m.m.m.m.m.",
"m.m.m.m.m.m.m.m.m.m.m.m.m.m.m.m.m.m.m.m.m.m.# - 2 4 4 3 3 2 2 2 2 2 2 3 3 4 4 1 = X m.m.m.m.m.m.m.m.m.m.m.m.m.m.m.m.m.m.m.m.m.m.",
"m.m.m.m.m.m.m.m.m.m.m.m.m.m.m.m.m.m.m.m.m.m.m.m.m.m.5 q t i p p p i u r 0 3 m.m.m.m.m.m.m.m.m.m.m.m.m.m.m.m.m.m.m.m.m.m.m.m.m.m.",
"m.m.m.m.m.m.m.m.m.m.m.m.m.m.m.m.m.m.m.m.m.m.m.m.m.m.m.m.m.m.m.m.m.m.m.m.m.m.m.m.m.m.m.m.m.m.m.m.m.m.m.m.m.m.m.m.m.m.m.m.m.m.m.m."
};
