/* XPM */
static char *result[] = {
/* columns rows colors chars-per-pixel */
"32 32 99 2 ",
"   c #0C0C0C",
".  c #0E0E0E",
"X  c gray6",
"o  c #101010",
"O  c gray8",
"+  c #151515",
"@  c #161616",
"#  c gray9",
"$  c #181818",
"%  c #1B1B1B",
"&  c gray11",
"*  c #1D1D1D",
"=  c #1E1E1E",
"-  c gray12",
";  c #202020",
":  c gray13",
">  c #222222",
",  c #232323",
"<  c gray14",
"1  c #252525",
"2  c gray15",
"3  c #272727",
"4  c #282828",
"5  c gray16",
"6  c #2A2A2A",
"7  c gray17",
"8  c #2C2C2C",
"9  c #2D2D2D",
"0  c #2F2F2F",
"q  c #323232",
"w  c gray20",
"e  c #343434",
"r  c #373737",
"t  c gray22",
"y  c #3E3E3E",
"u  c #444444",
"i  c #494949",
"p  c gray30",
"a  c gray33",
"s  c #5B5B5B",
"d  c gray36",
"f  c #5D5D5D",
"g  c gray37",
"h  c gray38",
"j  c gray39",
"k  c #676767",
"l  c #686868",
"z  c DimGray",
"x  c #6D6D6D",
"c  c gray43",
"v  c gray44",
"b  c #717171",
"n  c #747474",
"m  c #797979",
"M  c #848484",
"N  c gray53",
"B  c #898989",
"V  c #8D8D8D",
"C  c gray56",
"Z  c #909090",
"A  c gray57",
"S  c #939393",
"D  c gray58",
"F  c #959595",
"G  c gray59",
"H  c #989898",
"J  c #9D9D9D",
"K  c gray65",
"L  c #AEAEAE",
"P  c #AFAFAF",
"I  c gray69",
"U  c #B2B2B2",
"Y  c gray71",
"T  c #B6B6B6",
"R  c #B7B7B7",
"E  c #BBBBBB",
"W  c gray74",
"Q  c #C1C1C1",
"!  c gray76",
"~  c gray80",
"^  c #CDCDCD",
"/  c gray82",
"(  c #D2D2D2",
")  c LightGray",
"_  c gray84",
"`  c #D7D7D7",
"'  c gray85",
"]  c #E4E4E4",
"[  c #ECECEC",
"{  c #EFEFEF",
"}  c #F4F4F4",
"|  c #F6F6F6",
" . c gray97",
".. c #F9F9F9",
"X. c #FBFBFB",
"o. c #FDFDFD",
"O. c #FEFEFE",
"+. c white",
"@. c None",
/* pixels */
"@.@.@.@.@.@.@.@.@.@.@.@.@.@.@.M M @.@.@.@.@.@.@.@.@.@.@.@.@.@.@.",
"@.@.@.@.@.@.@.@.@.@.f & * ; : : : : ; = # @.@.@.@.@.@.@.@.@.@.@.",
"@.@.@.@.@.@.@.@.. * : 6 6 5 5 5 6 3 : 4 7 8 4 # @.@.@.@.@.@.@.@.",
"@.@.@.@.@.@.@.3 8 6 5 5 5 5 5 5 - 0 s 8 - 5 6 8 1 @.@.@.@.@.@.@.",
"@.@.@.@.@.+ 7 6 5 5 5 5 5 6 > ; j ) o.^ f - , 5 7 6 @.@.@.@.@.@.",
"@.@.@.@.+ 8 6 5 5 5 5 6 1 & i R +.+.| +.+.I u ; 6 6 7 @.@.@.@.@.",
"@.@.@.@.8 6 5 5 5 6 4 * e H  .+.+.+.| +.+.+.} m : 5 6 6 @.@.@.@.",
"@.@.@.4 7 5 5 5 5 - 2 m ] +.+.+.+.+.| +.+.+.+.T = 5 5 7 < @.@.@.",
"@.@.o 8 5 5 5 5 : d ~ +.+.+.+.+.+.+.X.+.+.+.+.P = 5 5 5 8 @ @.@.",
"@.@.- 6 5 5 5 < J +.+.+.+.+.+.+.+.{ ) +.+.+.+.P = 5 5 5 6 3 @.@.",
"@.a , 5 5 5 4 2 ' +.+.+.+.+.+.+.I r C +.+.+.+.P = 5 5 5 5 8 @.@.",
"@.= 6 5 5 5 4 2 / +.+.+.+.+.^ d - # G +.+.+.+.P = 5 5 5 5 7 + @.",
"@.- 6 5 5 5 4 2 / +.+.+.+.H , - 5 * F +.+.+.+.P = 5 5 5 5 6 * @.",
"@.> 5 5 5 5 4 2 / +.+.+.+.l * 6 5 * F +.+.+.+.P = 5 5 5 5 5 ; @.",
"b > 5 5 5 5 4 2 / +.+.+.+.c - 5 6 $ C +.+.+.+.P = 5 5 5 5 5 ; @.",
"n : 5 5 5 5 4 2 / +.+.+.+.c ; 3 & t ! +.+.+.+.P = 5 5 5 5 5 : @.",
"n : 5 5 5 5 4 2 / +.+.+.+.x O 7 M [ +.+.+.+.+.P = 5 5 5 5 5 : @.",
"b > 5 5 5 5 4 2 ( +.+.+.+.b h _ +.+.+.+.+.+.+.P = 5 5 5 5 5 : @.",
"@.> 5 5 5 5 4 2 ) +.+.+.+.S ] +.+.+.+.+.+.+.+.P = 5 5 5 5 5 ; @.",
"@.; 6 5 5 5 4 2 ( +.+.+.+.z 9 J ..+.+.+.+.+.+.P = 5 5 5 5 6 * @.",
"@.@ 7 5 5 5 4 2 ( +.+.+.+.x % * p W O.+.+.+.+.P = 5 5 5 5 7 + @.",
"@.5 6 5 5 5 4 2 ( +.+.+.+.x - 5 : % K +.+.+.+.L = 5 5 5 5 8 @.@.",
"@.@.% 6 5 5 4 2 ( +.+.+.+.x - 5 5 & A +.+.+.+.L = 5 5 5 6 3 @.@.",
"@.@.  8 5 5 4 2 ( +.+.+.+.v - 5 5 * D +.+.+.+.Y = 5 5 5 8 @ @.@.",
"@.@.@.4 7 5 4 2 ( +.+.+.E y 1 5 5 * S +.+.+.' g , 5 5 7 < @.@.@.",
"@.@.@.@.8 6 4 2 ` +.` k : 1 6 5 5 * F +.{ B 9 ; 6 5 6 6 @.@.@.@.",
"@.@.@.@.+ 8 5 5 Q V 8 = 5 5 5 5 5 - Z U y & 3 6 5 6 7 @.@.@.@.@.",
"@.@.@.@.@.+ 7 8 q - 3 6 5 5 5 5 5 5 w , < 6 5 5 7 6 @.@.@.@.@.@.",
"@.@.@.@.@.@.@.3 6 6 5 5 5 5 5 5 5 5 3 5 5 5 6 8 1 @.@.@.@.@.@.@.",
"@.@.@.@.@.@.@.@.X * : 6 6 5 5 5 5 5 5 6 7 8 4 # @.@.@.@.@.@.@.@.",
"@.@.@.@.@.@.@.@.@.@.d & * ; : : : : ; = # @.@.@.@.@.@.@.@.@.@.@.",
"@.@.@.@.@.@.@.@.@.@.@.@.@.@.@.N N @.@.@.@.@.@.@.@.@.@.@.@.@.@.@."
};
